<?xml version="1.0" encoding="utf-8"?>
<!-- Generator: Adobe Illustrator 16.0.0, SVG Export Plug-In . SVG Version: 6.00 Build 0)  -->
<!DOCTYPE svg PUBLIC "-//W3C//DTD SVG 1.1//EN" "http://www.w3.org/Graphics/SVG/1.1/DTD/svg11.dtd">
<svg version="1.1" id="Layer_1" xmlns="http://www.w3.org/2000/svg" xmlns:xlink="http://www.w3.org/1999/xlink" x="0px" y="0px"
	 width="36.852px" height="36.852px" viewBox="0 0 36.852 36.852" enable-background="new 0 0 36.852 36.852" xml:space="preserve">
<polygon fill="#E6E7E8" points="7.126,15.59 15.63,15.59 15.63,7.086 12.792,9.924 7.123,4.255 4.295,7.083 9.964,12.752 "/>
<polygon fill="#E6E7E8" points="26.965,12.752 32.634,7.083 29.806,4.255 24.137,9.924 21.299,7.086 21.299,15.59 29.803,15.59 "/>
<polygon fill="#E6E7E8" points="12.792,26.926 15.63,29.764 15.63,21.26 7.126,21.26 9.964,24.098 4.295,29.767 7.123,32.595 "/>
<polygon fill="#E6E7E8" points="29.806,32.595 32.634,29.767 26.965,24.098 29.803,21.26 21.299,21.26 21.299,29.764 24.137,26.926 
	"/>
</svg>
