<?xml version="1.0" encoding="utf-8"?>
<!-- Generator: Adobe Illustrator 16.0.0, SVG Export Plug-In . SVG Version: 6.00 Build 0)  -->
<!DOCTYPE svg PUBLIC "-//W3C//DTD SVG 1.1//EN" "http://www.w3.org/Graphics/SVG/1.1/DTD/svg11.dtd">
<svg version="1.1" id="Layer_1" xmlns="http://www.w3.org/2000/svg" xmlns:xlink="http://www.w3.org/1999/xlink" x="0px" y="0px"
	 width="36.852px" height="36.852px" viewBox="0 0 36.852 36.852" enable-background="new 0 0 36.852 36.852" xml:space="preserve">
<polygon fill="#E6E7E8" points="12.411,15.943 15.942,12.403 10.981,7.454 14.177,4.269 4.252,4.269 4.252,14.16 7.439,10.983 "/>
<polygon fill="#E6E7E8" points="12.407,20.911 7.448,25.88 4.262,22.684 4.262,32.608 14.154,32.608 10.977,29.421 15.946,24.442 
	"/>
<polygon fill="#E6E7E8" points="24.442,20.934 20.911,24.473 25.873,29.423 22.677,32.608 32.602,32.608 32.602,22.717 
	29.414,25.894 "/>
<polygon fill="#E6E7E8" points="24.446,15.966 29.406,10.997 32.592,14.193 32.592,4.269 22.699,4.269 25.876,7.456 20.907,12.434 
	"/>
</svg>
