<?xml version="1.0" encoding="utf-8"?>
<!-- Generator: Adobe Illustrator 16.0.0, SVG Export Plug-In . SVG Version: 6.00 Build 0)  -->
<!DOCTYPE svg PUBLIC "-//W3C//DTD SVG 1.1//EN" "http://www.w3.org/Graphics/SVG/1.1/DTD/svg11.dtd">
<svg version="1.1" id="Layer_1" xmlns="http://www.w3.org/2000/svg" xmlns:xlink="http://www.w3.org/1999/xlink" x="0px" y="0px"
	 width="229.766px" height="85.036px" viewBox="-44.075 -16.313 229.766 85.036"
	 enable-background="new -44.075 -16.313 229.766 85.036" xml:space="preserve">
<g>
	<g>
		<path d="M-5.605,26.497H-27.24l-5.628,14.644h-11.207l22.801-57.453h9.617l22.801,57.453H0.024L-5.605,26.497z M-16.507-2.486
			c-2.009,6.01-3.8,11.033-5.375,15.068l-1.964,5.114h14.851l-1.963-5.114c-1.556-4.071-3.349-9.094-5.375-15.068H-16.507z"/>
		<path d="M29.823-16.313v48.648h26.879v8.803H19.303v-57.451H29.823z"/>
		<path d="M66.58,41.141v-57.453h10.519v57.453H66.58z"/>
		<path d="M112.137,27.098c1.059-3.118,1.825-5.346,2.298-6.676c0.472-1.333,1.467-4.058,2.983-8.181l10.648-28.554h11.121
			l-22.456,57.453h-9.447L84.828-16.313h11.204l10.651,28.555c1.518,4.123,2.511,6.848,2.982,8.181
			c0.473,1.33,1.238,3.558,2.298,6.676h0.173V27.098z"/>
		<path d="M157.438,32.336h28.253v8.803h-38.773v-57.451h37.229v8.802h-26.707V7.346h22.929v8.803h-22.929L157.438,32.336
			L157.438,32.336z"/>
	</g>
	<g>
		<path d="M-38.876,52.112c5.197,0,8.223,3.308,8.223,8.153c0,4.901-2.979,8.176-8.223,8.176h-5.198V52.112H-38.876z
			 M-38.876,67.271c4.379,0,6.833-2.666,6.833-7.003c0-4.281-2.499-6.981-6.833-6.981h-3.811v13.984H-38.876z"/>
		<path d="M3.781,53.276v6.164h8.076v1.162H3.781v6.674h8.813v1.166H2.393v-16.33h10.201v1.164H3.781z"/>
		<path d="M45.017,65.539c1.24,1.268,3.662,2.007,6.001,2.007c2.623,0,5.184-0.976,5.184-3.334c0-2.774-2.636-2.985-5.818-3.58
			c-2.858-0.532-5.522-1.265-5.522-4.269c0-3.105,3.31-4.538,6.72-4.538c1.941,0,3.929,0.466,5.387,1.349l-0.813,0.995
			c-1.274-0.789-2.995-1.204-4.728-1.204c-2.677,0-5.153,1.081-5.153,3.337c0,2.228,2.237,2.755,4.507,3.185
			c3.528,0.674,6.888,1.085,6.888,4.726c0,3.129-3.351,4.515-6.687,4.515c-2.578,0-5.366-0.812-6.803-2.24L45.017,65.539z"/>
		<path d="M90.409,68.442v-16.33h1.389v16.33H90.409z"/>
		<path d="M139.565,65.817c-1.386,1.811-3.598,2.906-6.513,2.906c-5.123,0-8.198-3.561-8.198-8.456c0-4.831,2.98-8.431,8.198-8.431
			c2.647,0,4.728,0.929,6.13,2.475l-0.85,0.795c-1.314-1.343-3.078-2.093-5.27-2.093c-4.218,0-6.819,2.901-6.819,7.254
			c0,4.345,2.573,7.287,6.813,7.287c2.271,0,3.981-0.771,5.148-2.136v-4.608h-5.148v-1.12h6.508V65.817L139.565,65.817z"/>
		<path d="M184.011,68.442l-9.767-14.014v14.014h-1.388v-16.33h1.678l9.768,14.016V52.112h1.39v16.33H184.011z"/>
	</g>
</g>
</svg>
